<svg width="24" height="24" viewBox="0 0 24 24" fill="none" xmlns="http://www.w3.org/2000/svg">
<path d="M11.01 19.7H12.935V18.325C13.8517 18.16 14.64 17.8025 15.3 17.2525C15.96 16.7025 16.29 15.8867 16.29 14.805C16.29 14.035 16.07 13.3292 15.63 12.6875C15.19 12.0458 14.31 11.4867 12.99 11.01C11.89 10.6433 11.1292 10.3225 10.7075 10.0475C10.2858 9.7725 10.075 9.39667 10.075 8.92C10.075 8.44333 10.2446 8.0675 10.5838 7.7925C10.9229 7.5175 11.4133 7.38 12.055 7.38C12.6417 7.38 13.1 7.52208 13.43 7.80625C13.76 8.09042 13.9983 8.44333 14.145 8.865L15.905 8.15C15.7033 7.50833 15.3321 6.94917 14.7913 6.4725C14.2504 5.99583 13.65 5.73 12.99 5.675V4.3H11.065V5.675C10.1483 5.87667 9.43333 6.28 8.92 6.885C8.40667 7.49 8.15 8.16833 8.15 8.92C8.15 9.78167 8.40208 10.4783 8.90625 11.01C9.41042 11.5417 10.2033 12 11.285 12.385C12.44 12.8067 13.2421 13.1825 13.6913 13.5125C14.1404 13.8425 14.365 14.2733 14.365 14.805C14.365 15.41 14.1496 15.8546 13.7188 16.1388C13.2879 16.4229 12.77 16.565 12.165 16.565C11.56 16.565 11.0238 16.3771 10.5563 16.0013C10.0887 15.6254 9.745 15.0617 9.525 14.31L7.71 15.025C7.96667 15.905 8.36542 16.6154 8.90625 17.1562C9.44708 17.6971 10.1483 18.0683 11.01 18.27V19.7ZM12 23C10.4783 23 9.04833 22.7113 7.71 22.1338C6.37167 21.5562 5.2075 20.7725 4.2175 19.7825C3.2275 18.7925 2.44375 17.6283 1.86625 16.29C1.28875 14.9517 1 13.5217 1 12C1 10.4783 1.28875 9.04833 1.86625 7.71C2.44375 6.37167 3.2275 5.2075 4.2175 4.2175C5.2075 3.2275 6.37167 2.44375 7.71 1.86625C9.04833 1.28875 10.4783 1 12 1C13.5217 1 14.9517 1.28875 16.29 1.86625C17.6283 2.44375 18.7925 3.2275 19.7825 4.2175C20.7725 5.2075 21.5562 6.37167 22.1338 7.71C22.7113 9.04833 23 10.4783 23 12C23 13.5217 22.7113 14.9517 22.1338 16.29C21.5562 17.6283 20.7725 18.7925 19.7825 19.7825C18.7925 20.7725 17.6283 21.5562 16.29 22.1338C14.9517 22.7113 13.5217 23 12 23Z" fill="currentColor"/>
</svg>
