<svg width="24" height="24" viewBox="0 0 24 24" fill="none" xmlns="http://www.w3.org/2000/svg">
<path d="M2 4.14286C2 3.57454 2.22576 3.02949 2.62763 2.62763C3.02949 2.22576 3.57454 2 4.14286 2H8.42857C8.99689 2 9.54194 2.22576 9.9438 2.62763C10.3457 3.02949 10.5714 3.57454 10.5714 4.14286V8.42857C10.5714 8.99689 10.3457 9.54194 9.9438 9.9438C9.54194 10.3457 8.99689 10.5714 8.42857 10.5714H4.14286C3.57454 10.5714 3.02949 10.3457 2.62763 9.9438C2.22576 9.54194 2 8.99689 2 8.42857V4.14286ZM13.4286 4.14286C13.4286 3.57454 13.6543 3.02949 14.0562 2.62763C14.4581 2.22576 15.0031 2 15.5714 2H19.8571C20.4255 2 20.9705 2.22576 21.3724 2.62763C21.7742 3.02949 22 3.57454 22 4.14286V8.42857C22 8.99689 21.7742 9.54194 21.3724 9.9438C20.9705 10.3457 20.4255 10.5714 19.8571 10.5714H15.5714C15.0031 10.5714 14.4581 10.3457 14.0562 9.9438C13.6543 9.54194 13.4286 8.99689 13.4286 8.42857V4.14286ZM2 15.5714C2 15.0031 2.22576 14.4581 2.62763 14.0562C3.02949 13.6543 3.57454 13.4286 4.14286 13.4286H8.42857C8.99689 13.4286 9.54194 13.6543 9.9438 14.0562C10.3457 14.4581 10.5714 15.0031 10.5714 15.5714V19.8571C10.5714 20.4255 10.3457 20.9705 9.9438 21.3724C9.54194 21.7742 8.99689 22 8.42857 22H4.14286C3.57454 22 3.02949 21.7742 2.62763 21.3724C2.22576 20.9705 2 20.4255 2 19.8571V15.5714ZM13.4286 15.5714C13.4286 15.0031 13.6543 14.4581 14.0562 14.0562C14.4581 13.6543 15.0031 13.4286 15.5714 13.4286H19.8571C20.4255 13.4286 20.9705 13.6543 21.3724 14.0562C21.7742 14.4581 22 15.0031 22 15.5714V19.8571C22 20.4255 21.7742 20.9705 21.3724 21.3724C20.9705 21.7742 20.4255 22 19.8571 22H15.5714C15.0031 22 14.4581 21.7742 14.0562 21.3724C13.6543 20.9705 13.4286 20.4255 13.4286 19.8571V15.5714Z" fill="currentColor"/>
</svg>
